<svg width="17" height="16" viewBox="0 0 17 16" fill="none" xmlns="http://www.w3.org/2000/svg">
    <g clip-path="url(#clip0)">
        <path d="M14.8867 1.25H14.1367V0H12.8867V1.25H4.63672V0H3.38672V1.25H2.63672C1.60284 1.25 0.761719 2.09113 0.761719 3.125V14.125C0.761719 15.1589 1.60284 16 2.63672 16H14.8867C15.9206 16 16.7617 15.1589 16.7617 14.125V3.125C16.7617 2.09113 15.9206 1.25 14.8867 1.25ZM15.5117 14.125C15.5117 14.4696 15.2313 14.75 14.8867 14.75H2.63672C2.29209 14.75 2.01172 14.4696 2.01172 14.125V5.875H15.5117V14.125ZM15.5117 4.625H2.01172V3.125C2.01172 2.78038 2.29209 2.5 2.63672 2.5H3.38672V3.75H4.63672V2.5H12.8867V3.75H14.1367V2.5H14.8867C15.2313 2.5 15.5117 2.78038 15.5117 3.125V4.625Z" fill="#828282"/>
        <path d="M4.38672 7.1875H3.13672V8.4375H4.38672V7.1875Z" fill="#828282"/>
        <path d="M6.88672 7.1875H5.63672V8.4375H6.88672V7.1875Z" fill="#828282"/>
        <path d="M9.38672 7.1875H8.13672V8.4375H9.38672V7.1875Z" fill="#828282"/>
        <path d="M11.8867 7.1875H10.6367V8.4375H11.8867V7.1875Z" fill="#828282"/>
        <path d="M14.3867 7.1875H13.1367V8.4375H14.3867V7.1875Z" fill="#828282"/>
        <path d="M4.38672 9.6875H3.13672V10.9375H4.38672V9.6875Z" fill="#828282"/>
        <path d="M6.88672 9.6875H5.63672V10.9375H6.88672V9.6875Z" fill="#828282"/>
        <path d="M9.38672 9.6875H8.13672V10.9375H9.38672V9.6875Z" fill="#828282"/>
        <path d="M11.8867 9.6875H10.6367V10.9375H11.8867V9.6875Z" fill="#828282"/>
        <path d="M4.38672 12.1875H3.13672V13.4375H4.38672V12.1875Z" fill="#828282"/>
        <path d="M6.88672 12.1875H5.63672V13.4375H6.88672V12.1875Z" fill="#828282"/>
        <path d="M9.38672 12.1875H8.13672V13.4375H9.38672V12.1875Z" fill="#828282"/>
        <path d="M11.8867 12.1875H10.6367V13.4375H11.8867V12.1875Z" fill="#828282"/>
        <path d="M14.3867 9.6875H13.1367V10.9375H14.3867V9.6875Z" fill="#828282"/>
    </g>
    <defs>
        <clipPath id="clip0">
            <rect width="16" height="16" fill="white" transform="translate(0.761719)"/>
        </clipPath>
    </defs>
</svg>
