<svg width="16" height="16" viewBox="0 0 16 16" fill="none" xmlns="http://www.w3.org/2000/svg">
    <path d="M8.88976 8.00051L15.4763 1.414C15.7082 1.18214 15.7082 0.806173 15.4763 0.57431C15.2444 0.342418 14.8684 0.342418 14.6366 0.57431L8.05007 7.16081L1.46356 0.57431C1.23167 0.342418 0.855733 0.342418 0.62387 0.57431C0.391978 0.806173 0.391978 1.18214 0.62387 1.414L7.21037 8.00051L0.62387 14.587C0.391978 14.8189 0.391978 15.1948 0.62387 15.4267C0.855733 15.6586 1.23167 15.6586 1.46356 15.4267L8.05007 8.8402L14.6366 15.4267C14.8684 15.6586 15.2444 15.6586 15.4763 15.4267C15.7082 15.1948 15.7082 14.8189 15.4763 14.587L8.88976 8.00051Z" fill="white"/>
</svg>
