<svg width="25" height="25" viewBox="0 0 25 25" fill="none" xmlns="http://www.w3.org/2000/svg">
    <path d="M24.0234 17.3828H22.5586V13.4766C22.5586 12.9372 22.1214 12.5 21.582 12.5H13.4766V9.46079C15.4312 9.01553 16.8945 7.26338 16.8945 5.17578C16.8945 2.75264 14.9231 0.78125 12.5 0.78125C10.0769 0.78125 8.10547 2.75264 8.10547 5.17578C8.10547 7.26338 9.56875 9.01553 11.5234 9.46079V12.5H3.41797C2.87861 12.5 2.44141 12.9372 2.44141 13.4766V17.3828H0.976562C0.437207 17.3828 0 17.82 0 18.3594V23.2422C0 23.7815 0.437207 24.2188 0.976562 24.2188H5.85938C6.39873 24.2188 6.83594 23.7815 6.83594 23.2422V18.3594C6.83594 17.82 6.39873 17.3828 5.85938 17.3828H4.39453V14.4531H11.5234V17.3828H10.0586C9.51924 17.3828 9.08203 17.82 9.08203 18.3594V23.2422C9.08203 23.7815 9.51924 24.2188 10.0586 24.2188H14.9414C15.4808 24.2188 15.918 23.7815 15.918 23.2422V18.3594C15.918 17.82 15.4808 17.3828 14.9414 17.3828H13.4766V14.4531H20.6055V17.3828H19.1406C18.6013 17.3828 18.1641 17.82 18.1641 18.3594V23.2422C18.1641 23.7815 18.6013 24.2188 19.1406 24.2188H24.0234C24.5628 24.2188 25 23.7815 25 23.2422V18.3594C25 17.82 24.5628 17.3828 24.0234 17.3828ZM4.88281 19.3359V22.2656H1.95312V19.3359H4.88281ZM13.9648 19.3359V22.2656H11.0352V19.3359H13.9648ZM12.5 7.61719C11.1538 7.61719 10.0586 6.52197 10.0586 5.17578C10.0586 3.82959 11.1538 2.73438 12.5 2.73438C13.8462 2.73438 14.9414 3.82959 14.9414 5.17578C14.9414 6.52197 13.8462 7.61719 12.5 7.61719ZM23.0469 22.2656H20.1172V19.3359H23.0469V22.2656Z" fill="#2F80ED"/>
</svg>
