<svg width="24" height="24" viewBox="0 0 23 23" fill="none" xmlns="http://www.w3.org/2000/svg">
    <path d="M18.8926 11.5001C18.4389 11.5001 18.0712 11.8678 18.0712 12.3215V20.5357C18.0712 20.9893 17.7034 21.3571 17.2497 21.3571H2.46425C2.01058 21.3571 1.64282 20.9893 1.64282 20.5357V4.10732C1.64282 3.65365 2.01058 3.28589 2.46425 3.28589H12.3213C12.7749 3.28589 13.1427 2.91812 13.1427 2.46445C13.1427 2.01078 12.7749 1.64307 12.3213 1.64307H2.46425C1.10328 1.64307 0 2.74635 0 4.10732V20.5357C0 21.8966 1.10328 22.9999 2.46425 22.9999H17.2498C18.6107 22.9999 19.714 21.8966 19.714 20.5357V12.3215C19.714 11.8678 19.3463 11.5001 18.8926 11.5001Z" fill="#2F80ED"/>
    <path d="M22.0795 0.921612C21.4897 0.331732 20.6898 0.000405017 19.8556 0.000501277C19.021 -0.00190522 18.2202 0.329999 17.6321 0.922141L6.8123 11.741C6.72254 11.8314 6.65482 11.9413 6.61434 12.0622L4.97152 16.9907C4.82814 17.4211 5.06085 17.8862 5.49128 18.0295C5.57478 18.0574 5.66224 18.0716 5.75022 18.0717C5.83839 18.0715 5.92604 18.0574 6.00978 18.0298L10.9383 16.387C11.0593 16.3465 11.1693 16.2785 11.2595 16.1882L22.0792 5.36848C23.3072 4.14059 23.3074 2.14965 22.0795 0.921612ZM20.9177 4.20778L10.2393 14.8862L7.04886 15.9516L8.11095 12.7653L18.7935 2.08689C19.3808 1.50076 20.3321 1.50172 20.9182 2.089C21.1982 2.36955 21.3559 2.74935 21.3571 3.1457C21.3581 3.54416 21.1999 3.92651 20.9177 4.20778Z" fill="#2F80ED"/>
</svg>

