<svg width="32" height="32" viewBox="0 0 34 34" fill="none" xmlns="http://www.w3.org/2000/svg">
<g clip-path="url(#clip0)">
<path d="M16.222 16.3341L23.3638 9.19229L26.1951 12.0235C26.5812 12.4096 26.5812 13.046 26.1922 13.4349C25.8033 13.8238 25.1669 13.8238 24.7809 13.4378L23.3638 12.0207L21.9496 13.4349L23.3638 14.8491C23.7527 15.2381 23.7527 15.8745 23.3638 16.2634C22.9749 16.6523 22.3385 16.6523 21.9496 16.2634L20.5354 14.8491L17.6363 17.7483C18.3154 18.7823 18.5873 20.0312 18.3994 21.2539C18.2115 22.4767 17.5772 23.5864 16.619 24.3688C15.6608 25.1512 14.4466 25.5508 13.211 25.4903C11.9754 25.4299 10.8061 24.9137 9.92879 24.0415C9.05113 23.1656 8.53024 21.9949 8.46723 20.7565C8.40422 19.5182 8.80359 18.3006 9.58782 17.3401C10.372 16.3797 11.4852 15.7449 12.7111 15.559C13.937 15.3731 15.1883 15.6493 16.222 16.3341ZM15.5856 22.6273C16.1483 22.0647 16.4643 21.3017 16.4643 20.506C16.4643 19.7104 16.1483 18.9473 15.5856 18.3847C15.023 17.8221 14.26 17.506 13.4643 17.506C12.6687 17.506 11.9056 17.8221 11.343 18.3847C10.7804 18.9473 10.4643 19.7104 10.4643 20.506C10.4643 21.3016 10.7804 22.0647 11.343 22.6273C11.9056 23.1899 12.6687 23.506 13.4643 23.506C14.26 23.506 15.023 23.1899 15.5856 22.6273Z" fill="#828282"/>
</g>
<defs>
<clipPath id="clip0">
<rect width="32" height="32" fill="white" transform="translate(0.0292969 16.9707) rotate(-45)"/>
</clipPath>
</defs>
</svg>
