<svg width="10" height="12" viewBox="0 0 10 12" fill="none" xmlns="http://www.w3.org/2000/svg">
    <path d="M9.33691 2.09428H6.63916V1.29004C6.63916 1.06081 6.45335 0.875 6.22412 0.875H4.14893C3.9197 0.875 3.73389 1.06081 3.73389 1.29004V2.09428H1.03613C0.806907 2.09428 0.621094 2.28009 0.621094 2.50932V4.13503C0.621094 4.36425 0.806907 4.55007 1.03613 4.55007H1.65869V10.4624C1.65869 11.0345 2.12416 11.5 2.69629 11.5H7.67676C8.24889 11.5 8.71436 11.0345 8.71436 10.4624V4.55007H9.33691C9.56614 4.55007 9.75195 4.36425 9.75195 4.13503V2.50932C9.75195 2.28009 9.56614 2.09428 9.33691 2.09428ZM4.56396 1.70508H5.80908V2.09428H4.56396V1.70508ZM7.88428 10.4624C7.88428 10.5768 7.79118 10.6699 7.67676 10.6699H2.69629C2.58186 10.6699 2.48877 10.5768 2.48877 10.4624V4.55007H7.88428V10.4624ZM8.92188 3.71999C8.69948 3.71999 1.83608 3.71999 1.45117 3.71999V2.92436H8.92188V3.71999Z" fill="white"/>
</svg>
