<svg width="16" height="16" viewBox="0 0 16 16" fill="none" xmlns="http://www.w3.org/2000/svg">
    <path d="M8.89 8.00051L15.4765 1.414C15.7084 1.18214 15.7084 0.806173 15.4765 0.57431C15.2446 0.342418 14.8687 0.342418 14.6368 0.57431L8.05031 7.16081L1.46381 0.57431C1.23192 0.342418 0.855977 0.342418 0.624115 0.57431C0.392222 0.806173 0.392222 1.18214 0.624115 1.414L7.21062 8.00051L0.624115 14.587C0.392222 14.8189 0.392222 15.1948 0.624115 15.4267C0.855977 15.6586 1.23192 15.6586 1.46381 15.4267L8.05031 8.8402L14.6368 15.4267C14.8687 15.6586 15.2446 15.6586 15.4765 15.4267C15.7084 15.1948 15.7084 14.8189 15.4765 14.587L8.89 8.00051Z" fill="#EB5757"/>
</svg>
