<svg width="24" height="24" viewBox="0 0 16 16" fill="none" xmlns="http://www.w3.org/2000/svg">
    <g clip-path="url(#clip0)">
        <path d="M15.0601 2.49719C14.7335 2.46741 14.4447 2.70803 14.4149 3.03459L14.3362 3.89758C13.0015 1.80146 10.6846 0.400391 7.99999 0.400391C5.11196 0.400391 2.56682 2.0487 1.30338 4.52262C1.15423 4.81465 1.27007 5.1723 1.5621 5.32145C1.8542 5.4706 2.21178 5.35479 2.36093 5.06272C3.43019 2.96904 5.5774 1.58789 7.99999 1.58789C10.2081 1.58789 12.2007 2.73772 13.3423 4.53907L12.4957 3.93442C12.2289 3.74386 11.8581 3.80567 11.6675 4.0725C11.4769 4.33936 11.5387 4.71015 11.8056 4.90075L14.3728 6.73428C14.7491 7.0025 15.268 6.75696 15.3092 6.30503L15.5975 3.14242C15.6273 2.81582 15.3867 2.52697 15.0601 2.49719Z" fill="white"/>
        <path d="M14.4392 10.6795C14.1472 10.5304 13.7895 10.6462 13.6404 10.9382C12.5711 13.0319 10.4239 14.413 8.00133 14.413C5.79327 14.413 3.80058 13.2632 2.65898 11.4619L3.50558 12.0665C3.77244 12.2571 4.14324 12.1953 4.33383 11.9284C4.52439 11.6616 4.46258 11.2908 4.19575 11.1002L1.62853 9.26665C1.25687 9.00113 0.733716 9.23931 0.692154 9.6959L0.403858 12.8585C0.374082 13.1851 0.614699 13.4739 0.941232 13.5037C1.26821 13.5334 1.55668 13.2926 1.58643 12.9663L1.6651 12.1033C2.99979 14.1995 5.31672 15.6005 8.00133 15.6005C10.8894 15.6005 13.4345 13.9522 14.6979 11.4783C14.8471 11.1863 14.7313 10.8286 14.4392 10.6795Z" fill="white"/>
    </g>
    <defs>
        <clipPath id="clip0">
            <rect width="15.2" height="15.2" fill="white" transform="translate(0.400391 0.400391)"/>
        </clipPath>
    </defs>
</svg>
