<svg width="18" height="18" viewBox="0 0 18 18" fill="none" xmlns="http://www.w3.org/2000/svg">
    <path d="M17.7951 15.8701L12.3539 10.429C12.2221 10.2971 12.0433 10.223 11.8568 10.223C11.6861 10.223 11.5224 10.2856 11.3947 10.3972L10.627 9.62949C12.4612 7.30925 12.3276 3.91052 10.1589 1.74177C10.1589 1.74177 10.1589 1.74177 10.1589 1.74177C7.83917 -0.577949 4.06469 -0.578019 1.74488 1.74177C-0.580147 4.06682 -0.580499 7.83037 1.74488 10.1558C3.88287 12.2937 7.2836 12.4751 9.63221 10.6234L10.4004 11.3916C10.1588 11.6677 10.1689 12.0875 10.4322 12.3508L15.8733 17.7919C16.1477 18.0663 16.5931 18.0664 16.8676 17.7919L17.3313 17.3283C17.3313 17.3282 17.3313 17.3282 17.3313 17.3282C17.3313 17.3282 17.3314 17.3281 17.3314 17.3281L17.795 16.8644C18.0696 16.5898 18.0696 16.1447 17.7951 15.8701ZM9.1646 9.16142C7.38903 10.937 4.51505 10.9372 2.73923 9.16142C0.963704 7.38596 0.963387 4.51183 2.73923 2.73602C4.51065 0.964602 7.39308 0.964496 9.1646 2.73602C10.9401 4.51152 10.9405 7.38564 9.1646 9.16142Z" fill="white"/>
</svg>
