<svg width="97" height="111" viewBox="0 0 98 112" fill="none" xmlns="http://www.w3.org/2000/svg">
<path d="M30.1051 11.0344C23.4955 12.8559 16.9308 14.8367 10.4167 16.9749C9.82192 17.1675 9.29318 17.5234 8.89074 18.0019C8.48829 18.4804 8.22834 19.0624 8.14048 19.6814C4.2958 48.5303 13.1788 69.5789 23.7759 83.4447C28.2627 89.374 33.6125 94.5976 39.6474 98.9414C42.0486 100.635 44.1721 101.856 45.8447 102.64C46.6774 103.036 47.3575 103.3 47.878 103.459C48.1057 103.539 48.3404 103.597 48.5789 103.633C48.8147 103.594 49.0469 103.536 49.2729 103.459C49.8004 103.3 50.4805 103.036 51.3132 102.64C52.9788 101.856 55.1093 100.628 57.5105 98.9414C63.5453 94.5975 68.8952 89.374 73.382 83.4447C83.9791 69.5858 92.8621 48.5303 89.0174 19.6814C88.9303 19.0621 88.6707 18.4798 88.2681 18.0011C87.8656 17.5225 87.3364 17.1668 86.7412 16.9749C82.2233 15.4967 74.5964 13.0885 67.0528 11.0413C59.3496 8.9524 52.264 7.40481 48.5789 7.40481C44.9008 7.40481 37.8083 8.9524 30.1051 11.0413V11.0344ZM28.2591 3.88631C35.7888 1.83906 43.7905 0 48.5789 0C53.3674 0 61.3691 1.83906 68.8988 3.88631C76.6021 5.96827 84.3677 8.43191 88.9341 9.92398C90.8434 10.5545 92.536 11.7107 93.8176 13.26C95.0992 14.8092 95.9178 16.6885 96.1793 18.6821C100.315 49.7517 90.7177 72.7781 79.0726 88.0111C74.1345 94.5275 68.2464 100.266 61.605 105.035C59.3086 106.685 56.8754 108.136 54.3321 109.372C52.3889 110.288 50.3 111.038 48.5789 111.038C46.8579 111.038 44.7759 110.288 42.8258 109.372C40.2825 108.136 37.8493 106.685 35.5529 105.035C28.9116 100.266 23.0235 94.5273 18.0853 88.0111C6.44021 72.7781 -3.15759 49.7517 0.978556 18.6821C1.2401 16.6885 2.05869 14.8092 3.3403 13.26C4.62191 11.7107 6.31454 10.5545 8.22375 9.92398C14.8526 7.75048 21.533 5.73734 28.2591 3.88631Z" fill="#BDBDBD"/>
<path d="M58.9887 45.1099C58.9898 47.2635 58.323 49.3644 57.0801 51.1232C55.8371 52.8819 54.0793 54.2119 52.0489 54.9298L54.7207 68.74C54.8179 69.2423 54.8028 69.7599 54.6766 70.2557C54.5503 70.7515 54.316 71.2133 53.9903 71.6079C53.6647 72.0025 53.2558 72.3202 52.793 72.5383C52.3302 72.7563 51.8249 72.8694 51.3132 72.8693H45.8446C45.3336 72.8683 44.8291 72.7546 44.3671 72.536C43.9052 72.3175 43.4972 71.9997 43.1723 71.6052C42.8474 71.2107 42.6137 70.7493 42.4878 70.254C42.3619 69.7588 42.347 69.2418 42.4441 68.74L45.109 54.9298C43.3099 54.2937 41.7203 53.1753 40.5138 51.6969C39.3074 50.2185 38.5305 48.4369 38.2681 46.5468C38.0057 44.6568 38.2678 42.7309 39.0259 40.9797C39.784 39.2286 41.0089 37.7195 42.5666 36.6174C44.1244 35.5153 45.9551 34.8625 47.8588 34.7305C49.7624 34.5985 51.6657 34.9923 53.3607 35.8688C55.0557 36.7454 56.4771 38.0709 57.4697 39.7007C58.4622 41.3304 58.9877 43.2017 58.9887 45.1099Z" fill="#BDBDBD"/>
</svg>
